<?xml version="1.0" encoding="utf-8"?>
<!-- Generator: Adobe Illustrator 27.3.1, SVG Export Plug-In . SVG Version: 6.00 Build 0)  -->
<svg version="1.1" id="Layer_1" xmlns="http://www.w3.org/2000/svg" xmlns:xlink="http://www.w3.org/1999/xlink" x="0px" y="0px"
	 viewBox="0 0 24 24" style="enable-background:new 0 0 24 24;" xml:space="preserve">
<g>
	<rect x="11" y="4" width="2" height="1"/>
	<rect x="11" y="10" width="2" height="1"/>
	<path d="M21,12V9c-3,0-6,1.1-8.4,3h-1.3C9,10.1,6,9,3,9v3c-0.6,0-1,0.4-1,1v2c0,0.6,0.4,1,1,1v4c3.3,0,6.6,1.3,9,3.5
		c2.4-2.3,5.7-3.5,9-3.5v-4c0.6,0,1-0.4,1-1v-2C22,12.4,21.6,12,21,12z"/>
	<circle cx="9" cy="4" r="1"/>
	<circle cx="15" cy="4" r="1"/>
	<path d="M8,8h3v1h2V8h3c1.7,0,3-1.3,3-3V3c0-1.7-1.3-3-3-3H8C6.3,0,5,1.3,5,3v2C5,6.7,6.3,8,8,8z M7,3c0-0.6,0.4-1,1-1h8
		c0.6,0,1,0.4,1,1v2c0,0.6-0.4,1-1,1H8C7.4,6,7,5.6,7,5V3z"/>
</g>
</svg>
